# xmcd
#
# Track frame offsets: 
#        150
#        13107
#        39152
#        54672
#        73465
#        90503
#        108799
#        126284
#        147219
#        171479
#        187790
#        209524
#        229616
#        249721
#        286071
#
# Disc length: 3847 seconds
#
# Revision: 0
# Processed by: cddbd v1.5.2PL0 Copyright (c) Steve Scherf et al.
# Submitted via: ExactAudioCopy v1.0b1
#
DISCID=d40f050f
DTITLE=Earth Wind And Fire - Playlist: The Very Best Of Earth Wind And
DTITLE=Fire
DYEAR=2008
DGENRE=Soul
TTITLE0=Shining Star
TTITLE1=That's The Way Of The World
TTITLE2=Sing A Song
TTITLE3=Can't Hide Love
TTITLE4=Getaway
TTITLE5=Saturday Nite
TTITLE6=Serpentine Fire
TTITLE7=Fantasy
TTITLE8=Be Ever Wonderful
TTITLE9=September
TTITLE10=Boogie Wonderland
TTITLE11=After The Love Has Gone
TTITLE12=In The Stone
TTITLE13=Let's Groove
TTITLE14=Data
EXTD=
EXTT0=
EXTT1=
EXTT2=
EXTT3=
EXTT4=
EXTT5=
EXTT6=
EXTT7=
EXTT8=
EXTT9=
EXTT10=
EXTT11=
EXTT12=
EXTT13=
EXTT14=
PLAYORDER=
